<mxfile host="65bd71144e">
    <diagram id="ifgUVGqTIos53EwaWt9Q" name="Page-1">
        <mxGraphModel dx="2672" dy="3233" grid="1" gridSize="10" guides="1" tooltips="1" connect="1" arrows="1" fold="1" page="1" pageScale="1" pageWidth="850" pageHeight="1100" math="0" shadow="0">
            <root>
                <mxCell id="0"/>
                <mxCell id="1" parent="0"/>
                <mxCell id="2" value="&lt;font face=&quot;Times New Roman&quot; style=&quot;font-size: 16px;&quot;&gt;Institute staff&lt;/font&gt;&lt;br&gt;&lt;span id=&quot;docs-internal-guid-78316b92-7fff-e418-dc4c-913e2cece983&quot;&gt;&lt;ul style=&quot;margin-top:0;margin-bottom:0;padding-inline-start:48px;&quot;&gt;&lt;li aria-level=&quot;1&quot; style=&quot;list-style-type: disc; font-size: 12pt; font-family: &amp;quot;Times New Roman&amp;quot;; background-color: transparent; font-variant-numeric: normal; font-variant-east-asian: normal; vertical-align: baseline;&quot; dir=&quot;ltr&quot;&gt;&lt;p role=&quot;presentation&quot; style=&quot;line-height:1.2;margin-top:3.95pt;margin-bottom:0pt;&quot; dir=&quot;ltr&quot;&gt;&lt;span style=&quot;font-size: 12pt; background-color: transparent; font-variant-numeric: normal; font-variant-east-asian: normal; vertical-align: baseline;&quot;&gt;Register/Add Teachers to the system&lt;/span&gt;&lt;/p&gt;&lt;/li&gt;&lt;li aria-level=&quot;1&quot; style=&quot;list-style-type: disc; font-size: 12pt; font-family: &amp;quot;Times New Roman&amp;quot;; background-color: transparent; font-variant-numeric: normal; font-variant-east-asian: normal; vertical-align: baseline;&quot; dir=&quot;ltr&quot;&gt;&lt;p role=&quot;presentation&quot; style=&quot;line-height:1.2;margin-top:0pt;margin-bottom:0pt;&quot; dir=&quot;ltr&quot;&gt;&lt;span style=&quot;font-size: 12pt; background-color: transparent; font-variant-numeric: normal; font-variant-east-asian: normal; vertical-align: baseline;&quot;&gt;Approve Classes&lt;/span&gt;&lt;/p&gt;&lt;/li&gt;&lt;li aria-level=&quot;1&quot; style=&quot;list-style-type: disc; font-size: 12pt; font-family: &amp;quot;Times New Roman&amp;quot;; background-color: transparent; font-variant-numeric: normal; font-variant-east-asian: normal; vertical-align: baseline;&quot; dir=&quot;ltr&quot;&gt;&lt;p role=&quot;presentation&quot; style=&quot;line-height:1.2;margin-top:0pt;margin-bottom:0pt;&quot; dir=&quot;ltr&quot;&gt;&lt;span style=&quot;font-size: 12pt; background-color: transparent; font-variant-numeric: normal; font-variant-east-asian: normal; vertical-align: baseline;&quot;&gt;Hall Management&lt;/span&gt;&lt;/p&gt;&lt;/li&gt;&lt;li aria-level=&quot;1&quot; style=&quot;list-style-type: disc; font-size: 12pt; font-family: &amp;quot;Times New Roman&amp;quot;; background-color: transparent; font-variant-numeric: normal; font-variant-east-asian: normal; vertical-align: baseline;&quot; dir=&quot;ltr&quot;&gt;&lt;p role=&quot;presentation&quot; style=&quot;line-height:1.2;margin-top:0pt;margin-bottom:0pt;&quot; dir=&quot;ltr&quot;&gt;&lt;span style=&quot;font-size: 12pt; background-color: transparent; font-variant-numeric: normal; font-variant-east-asian: normal; vertical-align: baseline;&quot;&gt;Manage physical payments&lt;/span&gt;&lt;/p&gt;&lt;/li&gt;&lt;li aria-level=&quot;1&quot; style=&quot;list-style-type: disc; font-size: 12pt; font-family: &amp;quot;Times New Roman&amp;quot;; background-color: transparent; font-variant-numeric: normal; font-variant-east-asian: normal; vertical-align: baseline;&quot; dir=&quot;ltr&quot;&gt;&lt;p role=&quot;presentation&quot; style=&quot;line-height:1.2;margin-top:0pt;margin-bottom:0pt;&quot; dir=&quot;ltr&quot;&gt;&lt;span style=&quot;font-size: 12pt; background-color: transparent; font-variant-numeric: normal; font-variant-east-asian: normal; vertical-align: baseline;&quot;&gt;Review Complaints&lt;/span&gt;&lt;/p&gt;&lt;/li&gt;&lt;li aria-level=&quot;1&quot; style=&quot;list-style-type: disc; font-size: 12pt; font-family: &amp;quot;Times New Roman&amp;quot;; background-color: transparent; font-variant-numeric: normal; font-variant-east-asian: normal; vertical-align: baseline;&quot; dir=&quot;ltr&quot;&gt;&lt;p role=&quot;presentation&quot; style=&quot;line-height:1.2;margin-top:0pt;margin-bottom:0pt;&quot; dir=&quot;ltr&quot;&gt;&lt;span style=&quot;font-size: 12pt; background-color: transparent; font-variant-numeric: normal; font-variant-east-asian: normal; vertical-align: baseline;&quot;&gt;View Analytics&lt;/span&gt;&lt;/p&gt;&lt;/li&gt;&lt;ul style=&quot;margin-top:0;margin-bottom:0;padding-inline-start:48px;&quot;&gt;&lt;li aria-level=&quot;2&quot; style=&quot;list-style-type: circle; font-size: 12pt; font-family: &amp;quot;Times New Roman&amp;quot;; background-color: transparent; font-variant-numeric: normal; font-variant-east-asian: normal; vertical-align: baseline;&quot; dir=&quot;ltr&quot;&gt;&lt;p role=&quot;presentation&quot; style=&quot;line-height:1.2;margin-top:0pt;margin-bottom:0pt;&quot; dir=&quot;ltr&quot;&gt;&lt;span style=&quot;font-size: 12pt; background-color: transparent; font-variant-numeric: normal; font-variant-east-asian: normal; vertical-align: baseline;&quot;&gt;Details of Student Counts&lt;/span&gt;&lt;/p&gt;&lt;/li&gt;&lt;li aria-level=&quot;2&quot; style=&quot;list-style-type: circle; font-size: 12pt; font-family: &amp;quot;Times New Roman&amp;quot;; background-color: transparent; font-variant-numeric: normal; font-variant-east-asian: normal; vertical-align: baseline;&quot; dir=&quot;ltr&quot;&gt;&lt;p role=&quot;presentation&quot; style=&quot;line-height:1.2;margin-top:0pt;margin-bottom:0pt;&quot; dir=&quot;ltr&quot;&gt;&lt;span style=&quot;font-size: 12pt; background-color: transparent; font-variant-numeric: normal; font-variant-east-asian: normal; vertical-align: baseline;&quot;&gt;Available Halls&lt;/span&gt;&lt;/p&gt;&lt;/li&gt;&lt;li aria-level=&quot;2&quot; style=&quot;list-style-type: circle; font-size: 12pt; font-family: &amp;quot;Times New Roman&amp;quot;; background-color: transparent; font-variant-numeric: normal; font-variant-east-asian: normal; vertical-align: baseline;&quot; dir=&quot;ltr&quot;&gt;&lt;p role=&quot;presentation&quot; style=&quot;line-height:1.2;margin-top:0pt;margin-bottom:0pt;&quot; dir=&quot;ltr&quot;&gt;&lt;span style=&quot;font-size: 12pt; background-color: transparent; font-variant-numeric: normal; font-variant-east-asian: normal; vertical-align: baseline;&quot;&gt;Complaint Status (Done or Pending)&lt;/span&gt;&lt;/p&gt;&lt;/li&gt;&lt;li aria-level=&quot;2&quot; style=&quot;list-style-type: circle; font-size: 12pt; font-family: &amp;quot;Times New Roman&amp;quot;; background-color: transparent; font-variant-numeric: normal; font-variant-east-asian: normal; vertical-align: baseline;&quot; dir=&quot;ltr&quot;&gt;&lt;p role=&quot;presentation&quot; style=&quot;line-height:1.2;margin-top:0pt;margin-bottom:0pt;&quot; dir=&quot;ltr&quot;&gt;&lt;span style=&quot;font-size: 12pt; background-color: transparent; font-variant-numeric: normal; font-variant-east-asian: normal; vertical-align: baseline;&quot;&gt;Attendance&lt;/span&gt;&lt;/p&gt;&lt;/li&gt;&lt;/ul&gt;&lt;li aria-level=&quot;1&quot; style=&quot;list-style-type: disc; font-size: 12pt; font-family: &amp;quot;Times New Roman&amp;quot;; background-color: transparent; font-variant-numeric: normal; font-variant-east-asian: normal; vertical-align: baseline;&quot; dir=&quot;ltr&quot;&gt;&lt;p role=&quot;presentation&quot; style=&quot;line-height:1.2;margin-top:0pt;margin-bottom:0pt;&quot; dir=&quot;ltr&quot;&gt;&lt;span style=&quot;font-size: 12pt; background-color: transparent; font-variant-numeric: normal; font-variant-east-asian: normal; vertical-align: baseline;&quot;&gt;Managers (Sub Role)&lt;/span&gt;&lt;/p&gt;&lt;/li&gt;&lt;ul style=&quot;margin-top:0;margin-bottom:0;padding-inline-start:48px;&quot;&gt;&lt;li aria-level=&quot;2&quot; style=&quot;list-style-type: circle; font-size: 12pt; font-family: &amp;quot;Times New Roman&amp;quot;; background-color: transparent; font-variant-numeric: normal; font-variant-east-asian: normal; vertical-align: baseline;&quot; dir=&quot;ltr&quot;&gt;&lt;p role=&quot;presentation&quot; style=&quot;line-height:1.2;margin-top:0pt;margin-bottom:0pt;&quot; dir=&quot;ltr&quot;&gt;&lt;span style=&quot;font-size: 12pt; background-color: transparent; font-variant-numeric: normal; font-variant-east-asian: normal; vertical-align: baseline;&quot;&gt;View Analytics&lt;/span&gt;&lt;/p&gt;&lt;/li&gt;&lt;ul style=&quot;margin-top:0;margin-bottom:0;padding-inline-start:48px;&quot;&gt;&lt;li aria-level=&quot;3&quot; style=&quot;list-style-type: square; font-size: 12pt; font-family: &amp;quot;Times New Roman&amp;quot;; background-color: transparent; font-variant-numeric: normal; font-variant-east-asian: normal; vertical-align: baseline;&quot; dir=&quot;ltr&quot;&gt;&lt;p role=&quot;presentation&quot; style=&quot;line-height:1.2;margin-top:0pt;margin-bottom:0pt;&quot; dir=&quot;ltr&quot;&gt;&lt;span style=&quot;font-size: 12pt; background-color: transparent; font-variant-numeric: normal; font-variant-east-asian: normal; vertical-align: baseline;&quot;&gt;Income Analysis&lt;/span&gt;&lt;/p&gt;&lt;/li&gt;&lt;/ul&gt;&lt;/ul&gt;&lt;/ul&gt;&lt;/span&gt;" style="text;html=1;strokeColor=none;fillColor=none;align=left;verticalAlign=middle;whiteSpace=wrap;rounded=0;" parent="1" vertex="1">
                    <mxGeometry x="470" y="-1420" width="350" height="370" as="geometry"/>
                </mxCell>
                <mxCell id="19" style="edgeStyle=orthogonalEdgeStyle;html=1;entryX=0;entryY=0.5;entryDx=0;entryDy=0;fontFamily=Times New Roman;fontSize=16;fontColor=#F0F0F0;endArrow=none;endFill=0;" parent="1" source="3" target="17" edge="1">
                    <mxGeometry relative="1" as="geometry"/>
                </mxCell>
                <mxCell id="23" style="edgeStyle=orthogonalEdgeStyle;html=1;entryX=0.5;entryY=0;entryDx=0;entryDy=0;fontFamily=Times New Roman;fontSize=16;fontColor=#F0F0F0;endArrow=none;endFill=0;" parent="1" source="3" target="22" edge="1">
                    <mxGeometry relative="1" as="geometry"/>
                </mxCell>
                <mxCell id="106" style="edgeStyle=none;jumpStyle=arc;html=1;entryX=0.5;entryY=1;entryDx=0;entryDy=0;strokeWidth=1;fontFamily=Times New Roman;fontSize=16;fontColor=#F0F0F0;endArrow=none;endFill=0;" parent="1" source="3" target="105" edge="1">
                    <mxGeometry relative="1" as="geometry"/>
                </mxCell>
                <mxCell id="3" value="Institute staff" style="rounded=0;whiteSpace=wrap;html=1;fontFamily=Times New Roman;fontSize=16;fontColor=#F0F0F0;" parent="1" vertex="1">
                    <mxGeometry x="530" y="-460" width="120" height="60" as="geometry"/>
                </mxCell>
                <mxCell id="20" style="edgeStyle=orthogonalEdgeStyle;html=1;entryX=0;entryY=0.5;entryDx=0;entryDy=0;fontFamily=Times New Roman;fontSize=16;fontColor=#F0F0F0;endArrow=none;endFill=0;" parent="1" source="17" target="18" edge="1">
                    <mxGeometry relative="1" as="geometry"/>
                </mxCell>
                <mxCell id="17" value="adds" style="rhombus;whiteSpace=wrap;html=1;fontFamily=Times New Roman;fontSize=16;fontColor=#F0F0F0;" parent="1" vertex="1">
                    <mxGeometry x="740" y="-470" width="80" height="80" as="geometry"/>
                </mxCell>
                <mxCell id="18" value="Teacher" style="rounded=0;whiteSpace=wrap;html=1;fontFamily=Times New Roman;fontSize=16;fontColor=#F0F0F0;" parent="1" vertex="1">
                    <mxGeometry x="910" y="-460" width="120" height="60" as="geometry"/>
                </mxCell>
                <mxCell id="25" style="edgeStyle=orthogonalEdgeStyle;html=1;fontFamily=Times New Roman;fontSize=16;fontColor=#F0F0F0;endArrow=none;endFill=0;" parent="1" source="21" target="22" edge="1">
                    <mxGeometry relative="1" as="geometry"/>
                </mxCell>
                <mxCell id="31" style="edgeStyle=orthogonalEdgeStyle;html=1;entryX=0;entryY=0.5;entryDx=0;entryDy=0;fontFamily=Times New Roman;fontSize=16;fontColor=#F0F0F0;endArrow=none;endFill=0;" parent="1" source="21" target="30" edge="1">
                    <mxGeometry relative="1" as="geometry"/>
                </mxCell>
                <mxCell id="121" style="edgeStyle=none;jumpStyle=arc;html=1;strokeWidth=1;fontFamily=Times New Roman;fontSize=16;fontColor=#F0F0F0;endArrow=none;endFill=0;" parent="1" source="21" target="118" edge="1">
                    <mxGeometry relative="1" as="geometry"/>
                </mxCell>
                <mxCell id="122" style="edgeStyle=none;jumpStyle=arc;html=1;entryX=0.5;entryY=0;entryDx=0;entryDy=0;strokeWidth=1;fontFamily=Times New Roman;fontSize=16;fontColor=#F0F0F0;endArrow=none;endFill=0;" parent="1" source="21" target="119" edge="1">
                    <mxGeometry relative="1" as="geometry"/>
                </mxCell>
                <mxCell id="123" style="edgeStyle=none;jumpStyle=arc;html=1;strokeWidth=1;fontFamily=Times New Roman;fontSize=16;fontColor=#F0F0F0;endArrow=none;endFill=0;" parent="1" source="21" target="120" edge="1">
                    <mxGeometry relative="1" as="geometry"/>
                </mxCell>
                <mxCell id="198" style="edgeStyle=none;html=1;entryX=0.652;entryY=0.036;entryDx=0;entryDy=0;entryPerimeter=0;endArrow=none;endFill=0;" parent="1" source="21" target="197" edge="1">
                    <mxGeometry relative="1" as="geometry"/>
                </mxCell>
                <mxCell id="21" value="Hall" style="rounded=0;whiteSpace=wrap;html=1;fontFamily=Times New Roman;fontSize=16;fontColor=#F0F0F0;" parent="1" vertex="1">
                    <mxGeometry x="780" y="-300" width="120" height="60" as="geometry"/>
                </mxCell>
                <mxCell id="22" value="selects" style="rhombus;whiteSpace=wrap;html=1;fontFamily=Times New Roman;fontSize=16;fontColor=#F0F0F0;" parent="1" vertex="1">
                    <mxGeometry x="550" y="-310" width="80" height="80" as="geometry"/>
                </mxCell>
                <mxCell id="26" value="N" style="text;html=1;strokeColor=none;fillColor=none;align=center;verticalAlign=middle;whiteSpace=wrap;rounded=0;fontFamily=Times New Roman;fontSize=16;fontColor=#F0F0F0;" parent="1" vertex="1">
                    <mxGeometry x="840" y="-460" width="60" height="30" as="geometry"/>
                </mxCell>
                <mxCell id="27" value="1" style="text;html=1;strokeColor=none;fillColor=none;align=center;verticalAlign=middle;whiteSpace=wrap;rounded=0;fontFamily=Times New Roman;fontSize=16;fontColor=#F0F0F0;" parent="1" vertex="1">
                    <mxGeometry x="650" y="-460" width="60" height="30" as="geometry"/>
                </mxCell>
                <mxCell id="28" value="1" style="text;html=1;strokeColor=none;fillColor=none;align=center;verticalAlign=middle;whiteSpace=wrap;rounded=0;fontFamily=Times New Roman;fontSize=16;fontColor=#F0F0F0;" parent="1" vertex="1">
                    <mxGeometry x="580" y="-390" width="60" height="30" as="geometry"/>
                </mxCell>
                <mxCell id="29" value="N" style="text;html=1;strokeColor=none;fillColor=none;align=center;verticalAlign=middle;whiteSpace=wrap;rounded=0;fontFamily=Times New Roman;fontSize=16;fontColor=#F0F0F0;" parent="1" vertex="1">
                    <mxGeometry x="720" y="-300" width="60" height="30" as="geometry"/>
                </mxCell>
                <mxCell id="33" style="edgeStyle=orthogonalEdgeStyle;html=1;entryX=0;entryY=0.5;entryDx=0;entryDy=0;fontFamily=Times New Roman;fontSize=16;fontColor=#F0F0F0;endArrow=none;endFill=0;" parent="1" source="30" target="32" edge="1">
                    <mxGeometry relative="1" as="geometry"/>
                </mxCell>
                <mxCell id="30" value="has" style="rhombus;whiteSpace=wrap;html=1;fontFamily=Times New Roman;fontSize=16;fontColor=#F0F0F0;" parent="1" vertex="1">
                    <mxGeometry x="1010" y="-310" width="80" height="80" as="geometry"/>
                </mxCell>
                <mxCell id="35" style="edgeStyle=orthogonalEdgeStyle;html=1;entryX=0;entryY=0.5;entryDx=0;entryDy=0;fontFamily=Times New Roman;fontSize=16;fontColor=#F0F0F0;endArrow=none;endFill=0;" parent="1" source="32" target="34" edge="1">
                    <mxGeometry relative="1" as="geometry"/>
                </mxCell>
                <mxCell id="225" style="edgeStyle=none;html=1;exitX=1;exitY=0.75;exitDx=0;exitDy=0;entryX=0.5;entryY=0;entryDx=0;entryDy=0;endArrow=none;endFill=0;" edge="1" parent="1" source="32" target="220">
                    <mxGeometry relative="1" as="geometry"/>
                </mxCell>
                <mxCell id="32" value="Class" style="rounded=0;whiteSpace=wrap;html=1;fontFamily=Times New Roman;fontSize=16;fontColor=#F0F0F0;" parent="1" vertex="1">
                    <mxGeometry x="1170" y="-300" width="120" height="60" as="geometry"/>
                </mxCell>
                <mxCell id="37" style="edgeStyle=orthogonalEdgeStyle;html=1;entryX=0;entryY=0.5;entryDx=0;entryDy=0;fontFamily=Times New Roman;fontSize=16;fontColor=#F0F0F0;endArrow=none;endFill=0;strokeWidth=6;" parent="1" source="34" target="36" edge="1">
                    <mxGeometry relative="1" as="geometry"/>
                </mxCell>
                <mxCell id="34" value="has" style="rhombus;whiteSpace=wrap;html=1;fontFamily=Times New Roman;fontSize=16;fontColor=#F0F0F0;strokeWidth=6;" parent="1" vertex="1">
                    <mxGeometry x="1370" y="-310" width="80" height="80" as="geometry"/>
                </mxCell>
                <mxCell id="36" value="content" style="rounded=0;whiteSpace=wrap;html=1;fontFamily=Times New Roman;fontSize=16;fontColor=#F0F0F0;strokeWidth=6;" parent="1" vertex="1">
                    <mxGeometry x="1550" y="-300" width="120" height="60" as="geometry"/>
                </mxCell>
                <mxCell id="62" style="html=1;entryX=0.5;entryY=0;entryDx=0;entryDy=0;strokeWidth=1;fontFamily=Times New Roman;fontSize=16;fontColor=#F0F0F0;endArrow=none;endFill=0;" parent="1" source="52" target="58" edge="1">
                    <mxGeometry relative="1" as="geometry"/>
                </mxCell>
                <mxCell id="63" style="html=1;strokeWidth=1;fontFamily=Times New Roman;fontSize=16;fontColor=#F0F0F0;endArrow=none;endFill=0;" parent="1" source="52" target="57" edge="1">
                    <mxGeometry relative="1" as="geometry"/>
                </mxCell>
                <mxCell id="64" style="html=1;strokeWidth=1;fontFamily=Times New Roman;fontSize=16;fontColor=#F0F0F0;endArrow=none;endFill=0;" parent="1" source="52" target="56" edge="1">
                    <mxGeometry relative="1" as="geometry"/>
                </mxCell>
                <mxCell id="65" style="edgeStyle=none;html=1;strokeWidth=1;fontFamily=Times New Roman;fontSize=16;fontColor=#F0F0F0;endArrow=none;endFill=0;" parent="1" source="52" target="59" edge="1">
                    <mxGeometry relative="1" as="geometry"/>
                </mxCell>
                <mxCell id="158" style="edgeStyle=orthogonalEdgeStyle;jumpStyle=arc;html=1;entryX=0;entryY=0.5;entryDx=0;entryDy=0;strokeWidth=1;fontFamily=Times New Roman;fontSize=16;fontColor=#F0F0F0;endArrow=none;endFill=0;exitX=0;exitY=0.75;exitDx=0;exitDy=0;" parent="1" source="52" target="157" edge="1">
                    <mxGeometry relative="1" as="geometry">
                        <Array as="points">
                            <mxPoint x="1170" y="615"/>
                            <mxPoint x="1170" y="600"/>
                            <mxPoint x="-170" y="600"/>
                            <mxPoint x="-170" y="-880"/>
                        </Array>
                    </mxGeometry>
                </mxCell>
                <mxCell id="226" style="edgeStyle=orthogonalEdgeStyle;html=1;exitX=1;exitY=0;exitDx=0;exitDy=0;entryX=0.5;entryY=1;entryDx=0;entryDy=0;endArrow=none;endFill=0;" edge="1" parent="1" source="52" target="220">
                    <mxGeometry relative="1" as="geometry">
                        <Array as="points">
                            <mxPoint x="1330" y="410"/>
                            <mxPoint x="1430" y="410"/>
                        </Array>
                    </mxGeometry>
                </mxCell>
                <mxCell id="52" value="Student" style="rounded=0;whiteSpace=wrap;html=1;fontFamily=Times New Roman;fontSize=16;fontColor=#F0F0F0;" parent="1" vertex="1">
                    <mxGeometry x="1165" y="570" width="120" height="60" as="geometry"/>
                </mxCell>
                <mxCell id="55" style="edgeStyle=orthogonalEdgeStyle;html=1;strokeWidth=1;fontFamily=Times New Roman;fontSize=16;fontColor=#F0F0F0;endArrow=none;endFill=0;" parent="1" source="53" edge="1">
                    <mxGeometry relative="1" as="geometry">
                        <mxPoint x="1240" y="-240" as="targetPoint"/>
                    </mxGeometry>
                </mxCell>
                <mxCell id="53" value="pays=enroll" style="rhombus;whiteSpace=wrap;html=1;fontFamily=Times New Roman;fontSize=16;fontColor=#F0F0F0;" parent="1" vertex="1">
                    <mxGeometry x="1190" y="-200" width="100" height="110" as="geometry"/>
                </mxCell>
                <mxCell id="56" value="&lt;u&gt;student_Id&lt;/u&gt;" style="ellipse;whiteSpace=wrap;html=1;strokeWidth=1;fontFamily=Times New Roman;fontSize=16;fontColor=#F0F0F0;" parent="1" vertex="1">
                    <mxGeometry x="1325" y="560" width="120" height="50" as="geometry"/>
                </mxCell>
                <mxCell id="57" value="name" style="ellipse;whiteSpace=wrap;html=1;strokeWidth=1;fontFamily=Times New Roman;fontSize=16;fontColor=#F0F0F0;" parent="1" vertex="1">
                    <mxGeometry x="1325" y="630" width="120" height="50" as="geometry"/>
                </mxCell>
                <mxCell id="58" value="name" style="ellipse;whiteSpace=wrap;html=1;strokeWidth=1;fontFamily=Times New Roman;fontSize=16;fontColor=#F0F0F0;" parent="1" vertex="1">
                    <mxGeometry x="1205" y="710" width="120" height="50" as="geometry"/>
                </mxCell>
                <mxCell id="59" value="contact" style="ellipse;whiteSpace=wrap;html=1;strokeWidth=1;fontFamily=Times New Roman;fontSize=16;fontColor=#F0F0F0;" parent="1" vertex="1">
                    <mxGeometry x="1035" y="650" width="120" height="50" as="geometry"/>
                </mxCell>
                <mxCell id="60" value="date" style="ellipse;whiteSpace=wrap;html=1;strokeWidth=1;fontFamily=Times New Roman;fontSize=16;fontColor=#F0F0F0;" parent="1" vertex="1">
                    <mxGeometry x="1070" y="-120" width="120" height="50" as="geometry"/>
                </mxCell>
                <mxCell id="68" style="edgeStyle=none;html=1;entryX=0;entryY=0.5;entryDx=0;entryDy=0;strokeWidth=1;fontFamily=Times New Roman;fontSize=16;fontColor=#F0F0F0;endArrow=none;endFill=0;" parent="1" source="67" target="53" edge="1">
                    <mxGeometry relative="1" as="geometry"/>
                </mxCell>
                <mxCell id="67" value="payment_status" style="ellipse;whiteSpace=wrap;html=1;strokeWidth=1;fontFamily=Times New Roman;fontSize=16;fontColor=#F0F0F0;" parent="1" vertex="1">
                    <mxGeometry x="1070" y="-220" width="120" height="50" as="geometry"/>
                </mxCell>
                <mxCell id="99" style="edgeStyle=orthogonalEdgeStyle;jumpStyle=arc;html=1;entryX=0.5;entryY=0;entryDx=0;entryDy=0;strokeWidth=1;fontFamily=Times New Roman;fontSize=16;fontColor=#F0F0F0;endArrow=none;endFill=0;" parent="1" source="97" target="98" edge="1">
                    <mxGeometry relative="1" as="geometry"/>
                </mxCell>
                <mxCell id="97" value="Admin" style="rounded=0;whiteSpace=wrap;html=1;fontFamily=Times New Roman;fontSize=16;fontColor=#F0F0F0;" parent="1" vertex="1">
                    <mxGeometry x="710" y="-750" width="120" height="60" as="geometry"/>
                </mxCell>
                <mxCell id="100" style="edgeStyle=orthogonalEdgeStyle;jumpStyle=arc;html=1;entryX=0.25;entryY=0;entryDx=0;entryDy=0;strokeWidth=1;fontFamily=Times New Roman;fontSize=16;fontColor=#F0F0F0;endArrow=none;endFill=0;" parent="1" source="98" target="3" edge="1">
                    <mxGeometry relative="1" as="geometry">
                        <Array as="points">
                            <mxPoint x="465" y="-590"/>
                            <mxPoint x="460" y="-590"/>
                            <mxPoint x="460" y="-520"/>
                            <mxPoint x="560" y="-520"/>
                        </Array>
                    </mxGeometry>
                </mxCell>
                <mxCell id="98" value="adds" style="rhombus;whiteSpace=wrap;html=1;fontFamily=Times New Roman;fontSize=16;fontColor=#F0F0F0;" parent="1" vertex="1">
                    <mxGeometry x="425" y="-680" width="80" height="80" as="geometry"/>
                </mxCell>
                <mxCell id="101" value="expiry_date" style="ellipse;whiteSpace=wrap;html=1;strokeWidth=1;fontFamily=Times New Roman;fontSize=16;fontColor=#F0F0F0;" parent="1" vertex="1">
                    <mxGeometry x="2330" y="-597.5" width="120" height="50" as="geometry"/>
                </mxCell>
                <mxCell id="103" value="available time" style="ellipse;whiteSpace=wrap;html=1;strokeWidth=1;fontFamily=Times New Roman;fontSize=16;fontColor=#F0F0F0;" parent="1" vertex="1">
                    <mxGeometry x="2110" y="-667.5" width="120" height="50" as="geometry"/>
                </mxCell>
                <mxCell id="105" value="role[manager or normal staff]" style="ellipse;whiteSpace=wrap;html=1;strokeWidth=1;fontFamily=Times New Roman;fontSize=16;fontColor=#F0F0F0;" parent="1" vertex="1">
                    <mxGeometry x="530" y="-575" width="120" height="50" as="geometry"/>
                </mxCell>
                <mxCell id="107" value="M" style="text;html=1;strokeColor=none;fillColor=none;align=center;verticalAlign=middle;whiteSpace=wrap;rounded=0;fontFamily=Times New Roman;fontSize=16;fontColor=#F0F0F0;" parent="1" vertex="1">
                    <mxGeometry x="1240" y="-230" width="60" height="30" as="geometry"/>
                </mxCell>
                <mxCell id="108" value="N" style="text;html=1;strokeColor=none;fillColor=none;align=center;verticalAlign=middle;whiteSpace=wrap;rounded=0;fontFamily=Times New Roman;fontSize=16;fontColor=#F0F0F0;" parent="1" vertex="1">
                    <mxGeometry x="1235" y="530" width="60" height="30" as="geometry"/>
                </mxCell>
                <mxCell id="110" value="&lt;u&gt;course_Id&lt;/u&gt;" style="ellipse;whiteSpace=wrap;html=1;strokeWidth=1;fontFamily=Times New Roman;fontSize=16;fontColor=#F0F0F0;" parent="1" vertex="1">
                    <mxGeometry x="1980" y="-617.5" width="120" height="50" as="geometry"/>
                </mxCell>
                <mxCell id="111" value="name" style="ellipse;whiteSpace=wrap;html=1;strokeWidth=1;fontFamily=Times New Roman;fontSize=16;fontColor=#F0F0F0;" parent="1" vertex="1">
                    <mxGeometry x="2010" y="-697.5" width="120" height="50" as="geometry"/>
                </mxCell>
                <mxCell id="112" value="description" style="ellipse;whiteSpace=wrap;html=1;strokeWidth=1;fontFamily=Times New Roman;fontSize=16;fontColor=#F0F0F0;" parent="1" vertex="1">
                    <mxGeometry x="2240" y="-657.5" width="120" height="50" as="geometry"/>
                </mxCell>
                <mxCell id="116" value="price" style="ellipse;whiteSpace=wrap;html=1;strokeWidth=1;fontFamily=Times New Roman;fontSize=16;fontColor=#F0F0F0;" parent="1" vertex="1">
                    <mxGeometry x="2200" y="-732.5" width="120" height="50" as="geometry"/>
                </mxCell>
                <mxCell id="118" value="Hall_Id&lt;span style=&quot;color: rgba(0, 0, 0, 0); font-family: monospace; font-size: 0px; text-align: start;&quot;&gt;%3CmxGraphModel%3E%3Croot%3E%3CmxCell%20id%3D%220%22%2F%3E%3CmxCell%20id%3D%221%22%20parent%3D%220%22%2F%3E%3CmxCell%20id%3D%222%22%20value%3D%22payment_status%22%20style%3D%22ellipse%3BwhiteSpace%3Dwrap%3Bhtml%3D1%3BstrokeWidth%3D1%3BfontFamily%3DTimes%20New%20Roman%3BfontSize%3D16%3BfontColor%3D%23F0F0F0%3B%22%20vertex%3D%221%22%20parent%3D%221%22%3E%3CmxGeometry%20x%3D%221070%22%20y%3D%22-220%22%20width%3D%22120%22%20height%3D%2250%22%20as%3D%22geometry%22%2F%3E%3C%2FmxCell%3E%3C%2Froot%3E%3C%2FmxGraphModel%3E&lt;/span&gt;" style="ellipse;whiteSpace=wrap;html=1;strokeWidth=1;fontFamily=Times New Roman;fontSize=16;fontColor=#F0F0F0;" parent="1" vertex="1">
                    <mxGeometry x="650" y="-205" width="120" height="50" as="geometry"/>
                </mxCell>
                <mxCell id="119" value="name" style="ellipse;whiteSpace=wrap;html=1;strokeWidth=1;fontFamily=Times New Roman;fontSize=16;fontColor=#F0F0F0;" parent="1" vertex="1">
                    <mxGeometry x="860" y="-100" width="120" height="50" as="geometry"/>
                </mxCell>
                <mxCell id="120" value="capacity" style="ellipse;whiteSpace=wrap;html=1;strokeWidth=1;fontFamily=Times New Roman;fontSize=16;fontColor=#F0F0F0;" parent="1" vertex="1">
                    <mxGeometry x="900" y="-220" width="120" height="50" as="geometry"/>
                </mxCell>
                <mxCell id="125" style="edgeStyle=none;jumpStyle=arc;html=1;strokeWidth=1;fontFamily=Times New Roman;fontSize=16;fontColor=#F0F0F0;endArrow=none;endFill=0;" parent="1" source="124" target="21" edge="1">
                    <mxGeometry relative="1" as="geometry"/>
                </mxCell>
                <mxCell id="124" value="duartion" style="ellipse;whiteSpace=wrap;html=1;strokeWidth=1;fontFamily=Times New Roman;fontSize=16;fontColor=#F0F0F0;" parent="1" vertex="1">
                    <mxGeometry x="650" y="-90" width="120" height="50" as="geometry"/>
                </mxCell>
                <mxCell id="149" style="jumpStyle=arc;html=1;strokeWidth=1;fontFamily=Times New Roman;fontSize=16;fontColor=#F0F0F0;endArrow=none;endFill=0;" parent="1" source="126" target="134" edge="1">
                    <mxGeometry relative="1" as="geometry"/>
                </mxCell>
                <mxCell id="150" style="edgeStyle=none;jumpStyle=arc;html=1;strokeWidth=1;fontFamily=Times New Roman;fontSize=16;fontColor=#F0F0F0;endArrow=none;endFill=0;" parent="1" source="126" target="133" edge="1">
                    <mxGeometry relative="1" as="geometry"/>
                </mxCell>
                <mxCell id="151" style="edgeStyle=none;jumpStyle=arc;html=1;entryX=0.03;entryY=0.826;entryDx=0;entryDy=0;entryPerimeter=0;strokeWidth=1;fontFamily=Times New Roman;fontSize=16;fontColor=#F0F0F0;endArrow=none;endFill=0;" parent="1" source="126" target="132" edge="1">
                    <mxGeometry relative="1" as="geometry"/>
                </mxCell>
                <mxCell id="152" style="edgeStyle=none;jumpStyle=arc;html=1;entryX=0;entryY=1;entryDx=0;entryDy=0;strokeWidth=1;fontFamily=Times New Roman;fontSize=16;fontColor=#F0F0F0;endArrow=none;endFill=0;" parent="1" source="126" target="148" edge="1">
                    <mxGeometry relative="1" as="geometry"/>
                </mxCell>
                <mxCell id="153" style="edgeStyle=none;jumpStyle=arc;html=1;strokeWidth=1;fontFamily=Times New Roman;fontSize=16;fontColor=#F0F0F0;endArrow=none;endFill=0;" parent="1" source="126" target="130" edge="1">
                    <mxGeometry relative="1" as="geometry"/>
                </mxCell>
                <mxCell id="126" value="complaints" style="rounded=0;whiteSpace=wrap;html=1;fontFamily=Times New Roman;fontSize=16;fontColor=#F0F0F0;" parent="1" vertex="1">
                    <mxGeometry x="900" y="-650" width="120" height="60" as="geometry"/>
                </mxCell>
                <mxCell id="128" style="edgeStyle=orthogonalEdgeStyle;jumpStyle=arc;html=1;entryX=0;entryY=0.5;entryDx=0;entryDy=0;strokeWidth=1;fontFamily=Times New Roman;fontSize=16;fontColor=#F0F0F0;endArrow=none;endFill=0;" parent="1" source="127" target="126" edge="1">
                    <mxGeometry relative="1" as="geometry"/>
                </mxCell>
                <mxCell id="129" style="edgeStyle=orthogonalEdgeStyle;jumpStyle=arc;html=1;entryX=0;entryY=0;entryDx=0;entryDy=0;strokeWidth=1;fontFamily=Times New Roman;fontSize=16;fontColor=#F0F0F0;endArrow=none;endFill=0;" parent="1" source="127" target="27" edge="1">
                    <mxGeometry relative="1" as="geometry">
                        <Array as="points">
                            <mxPoint x="700" y="-610"/>
                            <mxPoint x="700" y="-460"/>
                        </Array>
                    </mxGeometry>
                </mxCell>
                <mxCell id="127" value="responds" style="rhombus;whiteSpace=wrap;html=1;fontFamily=Times New Roman;fontSize=16;fontColor=#F0F0F0;" parent="1" vertex="1">
                    <mxGeometry x="730" y="-650" width="80" height="80" as="geometry"/>
                </mxCell>
                <mxCell id="130" value="&lt;u&gt;complaint_Id&lt;/u&gt;" style="ellipse;whiteSpace=wrap;html=1;strokeWidth=1;fontFamily=Times New Roman;fontSize=16;fontColor=#F0F0F0;" parent="1" vertex="1">
                    <mxGeometry x="990" y="-740" width="120" height="50" as="geometry"/>
                </mxCell>
                <mxCell id="132" value="date and time" style="ellipse;whiteSpace=wrap;html=1;strokeWidth=1;fontFamily=Times New Roman;fontSize=16;fontColor=#F0F0F0;" parent="1" vertex="1">
                    <mxGeometry x="1220" y="-665" width="120" height="50" as="geometry"/>
                </mxCell>
                <mxCell id="133" value="status" style="ellipse;whiteSpace=wrap;html=1;strokeWidth=1;fontFamily=Times New Roman;fontSize=16;fontColor=#F0F0F0;" parent="1" vertex="1">
                    <mxGeometry x="1000" y="-560" width="120" height="50" as="geometry"/>
                </mxCell>
                <mxCell id="134" value="Response" style="ellipse;whiteSpace=wrap;html=1;strokeWidth=1;fontFamily=Times New Roman;fontSize=16;fontColor=#F0F0F0;" parent="1" vertex="1">
                    <mxGeometry x="870" y="-570" width="120" height="50" as="geometry"/>
                </mxCell>
                <mxCell id="137" value="message" style="ellipse;whiteSpace=wrap;html=1;" parent="1" vertex="1">
                    <mxGeometry x="1120" y="-600" width="100" height="50" as="geometry"/>
                </mxCell>
                <mxCell id="143" value="" style="endArrow=none;html=1;entryX=0;entryY=1;entryDx=0;entryDy=0;exitX=1;exitY=0.75;exitDx=0;exitDy=0;" parent="1" source="126" target="137" edge="1">
                    <mxGeometry width="50" height="50" relative="1" as="geometry">
                        <mxPoint x="1312.4" y="-739.7599999999998" as="sourcePoint"/>
                        <mxPoint x="1275" y="-800" as="targetPoint"/>
                    </mxGeometry>
                </mxCell>
                <mxCell id="148" value="complaint type" style="ellipse;whiteSpace=wrap;html=1;" parent="1" vertex="1">
                    <mxGeometry x="1080" y="-690" width="100" height="50" as="geometry"/>
                </mxCell>
                <mxCell id="159" style="edgeStyle=orthogonalEdgeStyle;jumpStyle=arc;html=1;strokeWidth=1;fontFamily=Times New Roman;fontSize=16;fontColor=#F0F0F0;endArrow=none;endFill=0;" parent="1" source="157" target="126" edge="1">
                    <mxGeometry relative="1" as="geometry"/>
                </mxCell>
                <mxCell id="157" value="files" style="rhombus;whiteSpace=wrap;html=1;fontFamily=Times New Roman;fontSize=16;fontColor=#F0F0F0;" parent="1" vertex="1">
                    <mxGeometry x="530" y="-920" width="80" height="80" as="geometry"/>
                </mxCell>
                <mxCell id="194" style="edgeStyle=none;html=1;entryX=0;entryY=1;entryDx=0;entryDy=0;endArrow=none;endFill=0;" parent="1" source="193" target="3" edge="1">
                    <mxGeometry relative="1" as="geometry"/>
                </mxCell>
                <mxCell id="193" value="&lt;u&gt;Institute staff_Id&lt;/u&gt;" style="ellipse;whiteSpace=wrap;html=1;strokeWidth=1;fontFamily=Times New Roman;fontSize=16;fontColor=#F0F0F0;" parent="1" vertex="1">
                    <mxGeometry x="380" y="-325" width="120" height="50" as="geometry"/>
                </mxCell>
                <mxCell id="195" value="N" style="text;html=1;strokeColor=none;fillColor=none;align=center;verticalAlign=middle;whiteSpace=wrap;rounded=0;fontFamily=Times New Roman;fontSize=16;fontColor=#F0F0F0;" parent="1" vertex="1">
                    <mxGeometry x="1490" y="-305" width="60" height="30" as="geometry"/>
                </mxCell>
                <mxCell id="196" value="1" style="text;html=1;strokeColor=none;fillColor=none;align=center;verticalAlign=middle;whiteSpace=wrap;rounded=0;fontFamily=Times New Roman;fontSize=16;fontColor=#F0F0F0;" parent="1" vertex="1">
                    <mxGeometry x="1280" y="-300" width="60" height="30" as="geometry"/>
                </mxCell>
                <mxCell id="197" value="status(available or not)" style="ellipse;whiteSpace=wrap;html=1;strokeWidth=1;fontFamily=Times New Roman;fontSize=16;fontColor=#F0F0F0;" parent="1" vertex="1">
                    <mxGeometry x="750" y="-140" width="120" height="50" as="geometry"/>
                </mxCell>
                <mxCell id="213" value="Hall management?" style="text;html=1;strokeColor=none;fillColor=none;align=center;verticalAlign=middle;whiteSpace=wrap;rounded=0;" parent="1" vertex="1">
                    <mxGeometry x="940" y="-1050" width="170" height="30" as="geometry"/>
                </mxCell>
                <mxCell id="223" style="edgeStyle=none;html=1;exitX=1;exitY=1;exitDx=0;exitDy=0;entryX=0;entryY=0.5;entryDx=0;entryDy=0;endArrow=none;endFill=0;" edge="1" parent="1" source="220" target="221">
                    <mxGeometry relative="1" as="geometry"/>
                </mxCell>
                <mxCell id="224" style="edgeStyle=none;html=1;exitX=1;exitY=0;exitDx=0;exitDy=0;entryX=0;entryY=0.5;entryDx=0;entryDy=0;endArrow=none;endFill=0;" edge="1" parent="1" source="220" target="222">
                    <mxGeometry relative="1" as="geometry"/>
                </mxCell>
                <mxCell id="220" value="Attends" style="rhombus;whiteSpace=wrap;html=1;fontFamily=Times New Roman;fontSize=16;fontColor=#F0F0F0;" vertex="1" parent="1">
                    <mxGeometry x="1380" y="-195" width="100" height="110" as="geometry"/>
                </mxCell>
                <mxCell id="221" value="attendance_Id" style="ellipse;whiteSpace=wrap;html=1;strokeWidth=1;fontFamily=Times New Roman;fontSize=16;fontColor=#F0F0F0;" vertex="1" parent="1">
                    <mxGeometry x="1500" y="-90" width="120" height="50" as="geometry"/>
                </mxCell>
                <mxCell id="222" value="date and time" style="ellipse;whiteSpace=wrap;html=1;strokeWidth=1;fontFamily=Times New Roman;fontSize=16;fontColor=#F0F0F0;" vertex="1" parent="1">
                    <mxGeometry x="1490" y="-205" width="120" height="50" as="geometry"/>
                </mxCell>
                <mxCell id="234" style="edgeStyle=none;html=1;exitX=0.5;exitY=0;exitDx=0;exitDy=0;entryX=0.5;entryY=1;entryDx=0;entryDy=0;endArrow=none;endFill=0;" edge="1" parent="1" source="229" target="53">
                    <mxGeometry relative="1" as="geometry"/>
                </mxCell>
                <mxCell id="235" value="" style="group" vertex="1" connectable="0" parent="1">
                    <mxGeometry x="960" y="-10" width="540" height="275" as="geometry"/>
                </mxCell>
                <mxCell id="78" value="type&lt;br&gt;[physical,online]" style="ellipse;whiteSpace=wrap;html=1;strokeWidth=1;fontFamily=Times New Roman;fontSize=16;fontColor=#F0F0F0;" parent="235" vertex="1">
                    <mxGeometry x="300" y="-20" width="140" height="60" as="geometry"/>
                </mxCell>
                <mxCell id="86" value="&lt;u&gt;Payment_Id&lt;/u&gt;" style="ellipse;whiteSpace=wrap;html=1;strokeWidth=1;fontFamily=Times New Roman;fontSize=16;fontColor=#F0F0F0;" parent="235" vertex="1">
                    <mxGeometry x="80" width="120" height="50" as="geometry"/>
                </mxCell>
                <mxCell id="191" value="&lt;u&gt;Reciept ID&lt;/u&gt;" style="ellipse;whiteSpace=wrap;html=1;strokeWidth=1;fontFamily=Times New Roman;fontSize=16;fontColor=#F0F0F0;" parent="235" vertex="1">
                    <mxGeometry y="65" width="120" height="50" as="geometry"/>
                </mxCell>
                <mxCell id="214" value="amount" style="ellipse;whiteSpace=wrap;html=1;strokeWidth=1;fontFamily=Times New Roman;fontSize=16;fontColor=#F0F0F0;" vertex="1" parent="235">
                    <mxGeometry y="135" width="120" height="50" as="geometry"/>
                </mxCell>
                <mxCell id="229" value="Pays" style="shape=associativeEntity;whiteSpace=wrap;html=1;align=center;" vertex="1" parent="235">
                    <mxGeometry x="200" y="95" width="120" height="60" as="geometry"/>
                </mxCell>
                <mxCell id="79" style="edgeStyle=none;html=1;entryX=0;entryY=1;entryDx=0;entryDy=0;strokeWidth=1;fontFamily=Times New Roman;fontSize=16;fontColor=#F0F0F0;endArrow=none;endFill=0;exitX=0.75;exitY=0;exitDx=0;exitDy=0;" parent="235" source="229" target="78" edge="1">
                    <mxGeometry relative="1" as="geometry">
                        <mxPoint x="602.5" y="315" as="sourcePoint"/>
                    </mxGeometry>
                </mxCell>
                <mxCell id="87" style="edgeStyle=none;html=1;strokeWidth=1;fontFamily=Times New Roman;fontSize=16;fontColor=#F0F0F0;endArrow=none;endFill=0;entryX=0.5;entryY=0;entryDx=0;entryDy=0;" parent="235" source="86" target="229" edge="1">
                    <mxGeometry relative="1" as="geometry"/>
                </mxCell>
                <mxCell id="216" style="edgeStyle=none;html=1;exitX=0;exitY=0.25;exitDx=0;exitDy=0;entryX=1;entryY=0.5;entryDx=0;entryDy=0;endArrow=none;endFill=0;" edge="1" parent="235" source="229" target="191">
                    <mxGeometry relative="1" as="geometry"/>
                </mxCell>
                <mxCell id="215" style="edgeStyle=none;html=1;exitX=1;exitY=0;exitDx=0;exitDy=0;entryX=0;entryY=0.5;entryDx=0;entryDy=0;endArrow=none;endFill=0;" edge="1" parent="235" source="214" target="229">
                    <mxGeometry relative="1" as="geometry"/>
                </mxCell>
                <mxCell id="244" style="html=1;exitX=1;exitY=0;exitDx=0;exitDy=0;entryX=0;entryY=1;entryDx=0;entryDy=0;endArrow=none;endFill=0;" edge="1" parent="235" source="230" target="229">
                    <mxGeometry relative="1" as="geometry"/>
                </mxCell>
                <mxCell id="230" value="Date &amp;amp; time" style="ellipse;whiteSpace=wrap;html=1;" vertex="1" parent="235">
                    <mxGeometry x="90" y="195" width="100" height="50" as="geometry"/>
                </mxCell>
                <mxCell id="231" style="edgeStyle=none;html=1;exitX=0.5;exitY=0;exitDx=0;exitDy=0;entryX=1;entryY=0.5;entryDx=0;entryDy=0;endArrow=none;endFill=0;" edge="1" parent="235" source="232" target="229">
                    <mxGeometry relative="1" as="geometry"/>
                </mxCell>
                <mxCell id="232" value="Status" style="ellipse;whiteSpace=wrap;html=1;" vertex="1" parent="235">
                    <mxGeometry x="325" y="185" width="100" height="50" as="geometry"/>
                </mxCell>
                <mxCell id="233" value="Expiration date" style="ellipse;whiteSpace=wrap;html=1;" vertex="1" parent="235">
                    <mxGeometry x="350" y="60" width="100" height="50" as="geometry"/>
                </mxCell>
                <mxCell id="228" style="edgeStyle=none;html=1;exitX=1;exitY=0;exitDx=0;exitDy=0;entryX=0;entryY=0.5;entryDx=0;entryDy=0;endArrow=none;endFill=0;" edge="1" parent="235" source="229" target="233">
                    <mxGeometry relative="1" as="geometry"/>
                </mxCell>
                <mxCell id="237" style="edgeStyle=none;html=1;exitX=0.5;exitY=1;exitDx=0;exitDy=0;entryX=0.5;entryY=0;entryDx=0;entryDy=0;endArrow=none;endFill=0;" edge="1" parent="1" source="229" target="52">
                    <mxGeometry relative="1" as="geometry"/>
                </mxCell>
            </root>
        </mxGraphModel>
    </diagram>
</mxfile>